<svg xmlns="http://www.w3.org/2000/svg" style="isolation:isolate" width="200" height="200"><defs><clipPath id="a"><path d="M0 0h200v200H0z"/></clipPath></defs><g clip-path="url(#a)"><clipPath id="b"><path fill="#FFF" d="M4-14h200v200H4z"/></clipPath><g clip-path="url(#b)"><path d="M43.201 21c-10.772 0-20.905.798-26.295 1.959-3.59.798-6.698 3.267-7.348 7.021-.9 5.673-1.338 11.41-1.309 17.155 0 7.348.651 13.065 1.469 17.154.658 3.591 3.758 6.208 7.348 7.021 5.721 1.145 15.515 1.959 26.298 1.959 10.784 0 20.574-.798 26.29-1.959 3.591-.797 6.699-3.267 7.349-7.021a123.488 123.488 0 0 0 1.632-17.306 88.566 88.566 0 0 0-1.632-17.314c-.65-3.59-3.75-6.208-7.349-7.025C63.934 21.818 53.976 21 43.201 21zm0 3.267c11.756 0 21.223.978 25.799 1.792 2.45.658 4.408 2.289 4.736 4.416a89.548 89.548 0 0 1 1.619 16.496 120.362 120.362 0 0 1-1.631 16.819c-.487 3.1-3.75 4.086-4.736 4.417-5.88 1.141-15.678 1.954-25.48 1.954s-19.76-.654-25.473-1.954c-2.449-.659-4.408-2.29-4.731-4.413-1.3-4.579-1.779-10.619-1.779-16.663 0-7.516.658-13.066 1.304-16.493.495-3.107 3.918-4.089 4.736-4.412 5.389-1.145 15.355-1.959 25.644-1.959h-.008zm-8.825 9.798v26.131l22.867-13.065-22.867-13.066zm3.267 5.558l13.066 7.508-13.066 7.508V39.623z" fill="#980000"/><path d="M34.554 123.423c-8.106 0-15.733.601-19.789 1.474-2.703.601-5.042 2.459-5.531 5.285a79.848 79.848 0 0 0-.985 12.911c0 5.53.49 9.833 1.105 12.911.495 2.702 2.828 4.672 5.531 5.284 4.305.862 11.677 1.474 19.792 1.474 8.116 0 15.485-.6 19.787-1.474 2.702-.6 5.041-2.459 5.531-5.284a92.937 92.937 0 0 0 1.228-13.025 66.646 66.646 0 0 0-1.228-13.031c-.49-2.703-2.823-4.672-5.531-5.288-4.305-.621-11.8-1.237-19.91-1.237zm0 2.459c8.849 0 15.974.736 19.418 1.348 1.843.496 3.318 1.724 3.564 3.324a67.456 67.456 0 0 1 1.219 12.416 90.743 90.743 0 0 1-1.228 12.658c-.367 2.333-2.823 3.075-3.564 3.324-4.426.859-11.8 1.471-19.177 1.471-7.378 0-14.872-.492-19.172-1.471-1.843-.495-3.317-1.723-3.561-3.321-.978-3.447-1.339-7.992-1.339-12.541 0-5.657.496-9.834.982-12.413.372-2.339 2.949-3.077 3.564-3.321 4.056-.861 11.557-1.474 19.3-1.474h-.006zm-6.641 7.374v19.667l17.21-9.833-17.21-9.834zm2.459 4.183l9.833 5.651-9.833 5.65v-11.301zm67.567-14.016c-8.107 0-15.733.601-19.79 1.474-2.702.601-5.041 2.459-5.53 5.285a79.735 79.735 0 0 0-.985 12.911c0 5.53.489 9.833 1.105 12.911.495 2.702 2.828 4.672 5.53 5.284 4.306.862 11.677 1.474 19.793 1.474s15.484-.6 19.787-1.474c2.702-.6 5.041-2.459 5.53-5.284a92.787 92.787 0 0 0 1.228-13.025 66.569 66.569 0 0 0-1.228-13.031c-.489-2.703-2.822-4.672-5.53-5.288-4.306-.621-11.8-1.237-19.91-1.237zm0 2.459c8.848 0 15.973.736 19.417 1.348 1.844.496 3.318 1.724 3.564 3.324a67.283 67.283 0 0 1 1.219 12.416 90.442 90.442 0 0 1-1.228 12.658c-.366 2.333-2.822 3.075-3.564 3.324-4.425.859-11.8 1.471-19.177 1.471-7.377 0-14.871-.492-19.171-1.471-1.844-.495-3.318-1.723-3.561-3.321-.979-3.447-1.339-7.992-1.339-12.541 0-5.657.495-9.834.982-12.413.372-2.339 2.948-3.077 3.564-3.321 4.056-.861 11.556-1.474 19.3-1.474h-.006zm-6.642 7.374v19.667l17.211-9.833-17.211-9.834zm2.459 4.183l9.834 5.651-9.834 5.65v-11.301zm66.798-14.016c-8.106 0-15.733.601-19.789 1.474-2.703.601-5.042 2.459-5.531 5.285a79.848 79.848 0 0 0-.985 12.911c0 5.53.49 9.833 1.105 12.911.495 2.702 2.828 4.672 5.531 5.284 4.305.862 11.677 1.474 19.792 1.474 8.116 0 15.485-.6 19.787-1.474 2.702-.6 5.041-2.459 5.531-5.284a92.937 92.937 0 0 0 1.228-13.025 66.646 66.646 0 0 0-1.228-13.031c-.49-2.703-2.823-4.672-5.531-5.288-4.305-.621-11.8-1.237-19.91-1.237zm0 2.459c8.849 0 15.974.736 19.418 1.348 1.843.496 3.318 1.724 3.564 3.324a67.456 67.456 0 0 1 1.219 12.416 90.743 90.743 0 0 1-1.228 12.658c-.367 2.333-2.823 3.075-3.564 3.324-4.426.859-11.8 1.471-19.177 1.471-7.378 0-14.872-.492-19.172-1.471-1.843-.495-3.317-1.723-3.561-3.321-.978-3.447-1.339-7.992-1.339-12.541 0-5.657.496-9.834.982-12.413.372-2.339 2.949-3.077 3.564-3.321 4.056-.861 11.557-1.474 19.3-1.474h-.006zm-6.641 7.374v19.667l17.21-9.833-17.21-9.834zm2.459 4.183l9.833 5.651-9.833 5.65v-11.301zM34.554 77.654c-8.106 0-15.733.6-19.789 1.474-2.703.601-5.042 2.459-5.531 5.285a79.836 79.836 0 0 0-.985 12.91c0 5.531.49 9.834 1.105 12.911.495 2.703 2.828 4.672 5.531 5.285 4.305.862 11.677 1.474 19.792 1.474 8.116 0 15.485-.6 19.787-1.474 2.702-.601 5.041-2.459 5.531-5.285a92.923 92.923 0 0 0 1.228-13.025 66.66 66.66 0 0 0-1.228-13.031c-.49-2.702-2.823-4.672-5.531-5.287-4.305-.622-11.8-1.237-19.91-1.237zm0 2.459c8.849 0 15.974.736 19.418 1.348 1.843.495 3.318 1.724 3.564 3.324A67.454 67.454 0 0 1 58.755 97.2a90.772 90.772 0 0 1-1.228 12.659c-.367 2.333-2.823 3.075-3.564 3.324-4.426.859-11.8 1.471-19.177 1.471-7.378 0-14.872-.492-19.172-1.471-1.843-.496-3.317-1.724-3.561-3.321-.978-3.447-1.339-7.993-1.339-12.542 0-5.656.496-9.833.982-12.412.372-2.339 2.949-3.078 3.564-3.321 4.056-.862 11.557-1.474 19.3-1.474h-.006zm-6.641 7.374v19.667l17.21-9.834-17.21-9.833zm2.459 4.183l9.833 5.65-9.833 5.651V91.67zm67.567-14.093c-8.107 0-15.733.6-19.79 1.474-2.702.601-5.041 2.459-5.53 5.285a79.727 79.727 0 0 0-.985 12.911c0 5.53.489 9.833 1.105 12.91.495 2.703 2.828 4.672 5.53 5.285 4.306.862 11.677 1.474 19.793 1.474s15.484-.6 19.787-1.474c2.702-.601 5.041-2.459 5.53-5.285a92.76 92.76 0 0 0 1.228-13.025 66.583 66.583 0 0 0-1.228-13.031c-.489-2.702-2.822-4.672-5.53-5.287-4.306-.622-11.8-1.237-19.91-1.237zm0 2.459c8.848 0 15.973.736 19.417 1.348 1.844.496 3.318 1.724 3.564 3.324a67.281 67.281 0 0 1 1.219 12.415 90.441 90.441 0 0 1-1.228 12.659c-.366 2.333-2.822 3.075-3.564 3.324-4.425.859-11.8 1.471-19.177 1.471-7.377 0-14.871-.492-19.171-1.471-1.844-.495-3.318-1.724-3.561-3.321-.979-3.447-1.339-7.993-1.339-12.541 0-5.657.495-9.834.982-12.413.372-2.339 2.948-3.078 3.564-3.321 4.056-.861 11.556-1.474 19.3-1.474h-.006zm-6.642 7.374v19.667l17.211-9.833-17.211-9.834zm2.459 4.183l9.834 5.651-9.834 5.65V91.593zM160.554 77.5c-8.106 0-15.733.601-19.789 1.474-2.703.601-5.042 2.459-5.531 5.285a79.848 79.848 0 0 0-.985 12.911c0 5.53.49 9.833 1.105 12.911.495 2.702 2.828 4.671 5.531 5.284 4.305.862 11.677 1.474 19.792 1.474 8.116 0 15.485-.6 19.787-1.474 2.702-.601 5.041-2.459 5.531-5.284a92.937 92.937 0 0 0 1.228-13.025 66.646 66.646 0 0 0-1.228-13.031c-.49-2.703-2.823-4.672-5.531-5.288-4.305-.621-11.8-1.237-19.91-1.237zm0 2.459c8.849 0 15.974.736 19.418 1.348 1.843.496 3.318 1.724 3.564 3.324a67.456 67.456 0 0 1 1.219 12.416 90.743 90.743 0 0 1-1.228 12.658c-.367 2.333-2.823 3.075-3.564 3.324-4.426.859-11.8 1.471-19.177 1.471-7.378 0-14.872-.492-19.172-1.471-1.843-.495-3.317-1.723-3.561-3.321-.978-3.447-1.339-7.993-1.339-12.541 0-5.657.496-9.834.982-12.413.372-2.339 2.949-3.077 3.564-3.321 4.056-.861 11.557-1.474 19.3-1.474h-.006zm-6.641 7.374V107l17.21-9.833-17.21-9.834zm2.459 4.183l9.833 5.651-9.833 5.65V91.516z" fill="#FFF"/></g><text transform="translate(90 54.141)" font-family="Open Sans" font-weight="400" font-size="20" fill="#fff">Channel</text></g></svg>