<svg data-name="Layer 1" xmlns="http://www.w3.org/2000/svg" viewBox="0 0 200 200"><defs><clipPath id="a"><path fill="none" d="M0 0h200v200H0z"/></clipPath></defs><g clip-path="url(#a)"><path d="M34.75 31c-8.25 0-16 .63-20.13 1.5A6.94 6.94 0 0 0 9 37.88 81.17 81.17 0 0 0 8 51a68 68 0 0 0 1.12 13.13 7.11 7.11 0 0 0 5.62 5.38A114.94 114.94 0 0 0 34.88 71 114.81 114.81 0 0 0 55 69.5a6.93 6.93 0 0 0 5.63-5.37 94.37 94.37 0 0 0 1.25-13.25 67.79 67.79 0 0 0-1.25-13.25A7.1 7.1 0 0 0 55 32.25 156 156 0 0 0 34.75 31zm0 2.5a124.69 124.69 0 0 1 19.75 1.37 4.58 4.58 0 0 1 3.62 3.38 68.46 68.46 0 0 1 1.25 12.63 92.07 92.07 0 0 1-1.25 12.87c-.37 2.37-2.87 3.13-3.62 3.38A114.52 114.52 0 0 1 35 68.62c-7.5 0-15.12-.5-19.5-1.5a4.58 4.58 0 0 1-3.62-3.38A49.07 49.07 0 0 1 10.5 51a69.62 69.62 0 0 1 1-12.62c.38-2.38 3-3.13 3.63-3.38a109.54 109.54 0 0 1 19.63-1.5zM28 41v20l17.5-10zm2.5 4.25l10 5.75-10 5.75zM97.55 31c-8.25 0-16 .63-20.13 1.5a6.94 6.94 0 0 0-5.62 5.38 81.15 81.15 0 0 0-1 13.12 68 68 0 0 0 1.12 13.13 7.11 7.11 0 0 0 5.63 5.38A114.92 114.92 0 0 0 97.67 71a114.81 114.81 0 0 0 20.12-1.5 6.93 6.93 0 0 0 5.63-5.37 94.68 94.68 0 0 0 1.25-13.25 67.79 67.79 0 0 0-1.25-13.25 7.1 7.1 0 0 0-5.62-5.38A156 156 0 0 0 97.55 31zm0 2.5a124.67 124.67 0 0 1 19.75 1.37 4.59 4.59 0 0 1 3.62 3.38 68.55 68.55 0 0 1 1.25 12.63 92.38 92.38 0 0 1-1.25 12.87c-.37 2.37-2.87 3.13-3.62 3.38a114.5 114.5 0 0 1-19.5 1.5c-7.5 0-15.12-.5-19.5-1.5a4.58 4.58 0 0 1-3.62-3.38A49.07 49.07 0 0 1 73.3 51a69.71 69.71 0 0 1 1-12.62c.38-2.38 3-3.13 3.63-3.38a109.56 109.56 0 0 1 19.63-1.5zM90.8 41v20l17.5-10zm2.5 4.25l10 5.75-10 5.75zM160.35 31c-8.25 0-16 .63-20.13 1.5a6.94 6.94 0 0 0-5.62 5.38 81.17 81.17 0 0 0-1 13.13 68 68 0 0 0 1.12 13.13 7.11 7.11 0 0 0 5.63 5.38A114.92 114.92 0 0 0 160.47 71a114.81 114.81 0 0 0 20.12-1.5 6.93 6.93 0 0 0 5.63-5.37 94.37 94.37 0 0 0 1.25-13.25 67.79 67.79 0 0 0-1.25-13.25 7.1 7.1 0 0 0-5.62-5.38A156 156 0 0 0 160.35 31zm0 2.5a124.69 124.69 0 0 1 19.75 1.37 4.58 4.58 0 0 1 3.62 3.38A68.46 68.46 0 0 1 185 50.88a92.07 92.07 0 0 1-1.25 12.87c-.37 2.37-2.87 3.13-3.62 3.38a114.52 114.52 0 0 1-19.5 1.5c-7.5 0-15.12-.5-19.5-1.5a4.58 4.58 0 0 1-3.62-3.38A49.12 49.12 0 0 1 136.1 51a69.62 69.62 0 0 1 1-12.62c.38-2.38 3-3.13 3.63-3.38a109.54 109.54 0 0 1 19.63-1.5zM153.6 41v20l17.5-10zm2.5 4.25l10 5.75-10 5.75zM34.75 77c-8.25 0-16 .63-20.13 1.5A6.94 6.94 0 0 0 9 83.88 81.17 81.17 0 0 0 8 97a68 68 0 0 0 1.12 13.13 7.11 7.11 0 0 0 5.62 5.38A114.94 114.94 0 0 0 34.88 117 114.81 114.81 0 0 0 55 115.5a6.93 6.93 0 0 0 5.63-5.37 94.37 94.37 0 0 0 1.25-13.25 67.79 67.79 0 0 0-1.25-13.25A7.1 7.1 0 0 0 55 78.25 156 156 0 0 0 34.75 77zm0 2.5a124.69 124.69 0 0 1 19.75 1.37 4.58 4.58 0 0 1 3.62 3.38 68.46 68.46 0 0 1 1.25 12.63 92.07 92.07 0 0 1-1.25 12.87c-.37 2.37-2.87 3.13-3.62 3.38a114.52 114.52 0 0 1-19.5 1.5c-7.5 0-15.12-.5-19.5-1.5a4.58 4.58 0 0 1-3.62-3.38A49.07 49.07 0 0 1 10.5 97a69.62 69.62 0 0 1 1-12.62c.38-2.38 3-3.13 3.63-3.38a109.54 109.54 0 0 1 19.63-1.5zM28 87v20l17.5-10zm2.5 4.25l10 5.75-10 5.75zM97.55 77c-8.25 0-16 .63-20.13 1.5a6.94 6.94 0 0 0-5.62 5.38 81.15 81.15 0 0 0-1 13.12 68 68 0 0 0 1.12 13.13 7.11 7.11 0 0 0 5.63 5.38A114.92 114.92 0 0 0 97.67 117a114.81 114.81 0 0 0 20.12-1.5 6.93 6.93 0 0 0 5.63-5.37 94.68 94.68 0 0 0 1.25-13.25 67.79 67.79 0 0 0-1.25-13.25 7.1 7.1 0 0 0-5.62-5.38A156 156 0 0 0 97.55 77zm0 2.5a124.67 124.67 0 0 1 19.75 1.37 4.59 4.59 0 0 1 3.62 3.38 68.55 68.55 0 0 1 1.25 12.63 92.38 92.38 0 0 1-1.25 12.87c-.37 2.37-2.87 3.13-3.62 3.38a114.5 114.5 0 0 1-19.5 1.5c-7.5 0-15.12-.5-19.5-1.5a4.58 4.58 0 0 1-3.62-3.38A49.07 49.07 0 0 1 73.3 97a69.71 69.71 0 0 1 1-12.62c.38-2.38 3-3.13 3.63-3.38a109.56 109.56 0 0 1 19.63-1.5zM90.8 87v20l17.5-10zm2.5 4.25l10 5.75-10 5.75zM160.35 77c-8.25 0-16 .63-20.13 1.5a6.94 6.94 0 0 0-5.62 5.38 81.17 81.17 0 0 0-1 13.13 68 68 0 0 0 1.12 13.13 7.11 7.11 0 0 0 5.63 5.38 114.92 114.92 0 0 0 20.13 1.5 114.81 114.81 0 0 0 20.12-1.5 6.93 6.93 0 0 0 5.63-5.37 94.37 94.37 0 0 0 1.25-13.25 67.79 67.79 0 0 0-1.25-13.25 7.1 7.1 0 0 0-5.62-5.38A156 156 0 0 0 160.35 77zm0 2.5a124.69 124.69 0 0 1 19.75 1.37 4.58 4.58 0 0 1 3.62 3.38A68.46 68.46 0 0 1 185 96.88a92.07 92.07 0 0 1-1.25 12.87c-.37 2.37-2.87 3.13-3.62 3.38a114.52 114.52 0 0 1-19.5 1.5c-7.5 0-15.12-.5-19.5-1.5a4.58 4.58 0 0 1-3.62-3.38A49.12 49.12 0 0 1 136.1 97a69.62 69.62 0 0 1 1-12.62c.38-2.38 3-3.13 3.63-3.38a109.54 109.54 0 0 1 19.63-1.5zM153.6 87v20l17.5-10zm2.5 4.25l10 5.75-10 5.75zM34.75 123c-8.25 0-16 .63-20.13 1.5A6.94 6.94 0 0 0 9 129.88 81.17 81.17 0 0 0 8 143a68 68 0 0 0 1.12 13.13 7.11 7.11 0 0 0 5.62 5.38A114.94 114.94 0 0 0 34.88 163 114.81 114.81 0 0 0 55 161.5a6.93 6.93 0 0 0 5.63-5.37 94.37 94.37 0 0 0 1.25-13.25 67.79 67.79 0 0 0-1.25-13.25 7.1 7.1 0 0 0-5.63-5.38A156 156 0 0 0 34.75 123zm0 2.5a124.69 124.69 0 0 1 19.75 1.37 4.58 4.58 0 0 1 3.62 3.38 68.46 68.46 0 0 1 1.25 12.63 92.07 92.07 0 0 1-1.25 12.87c-.37 2.37-2.87 3.13-3.62 3.38a114.52 114.52 0 0 1-19.5 1.49c-7.5 0-15.12-.5-19.5-1.5a4.58 4.58 0 0 1-3.62-3.38A49.07 49.07 0 0 1 10.5 143a69.62 69.62 0 0 1 1-12.62c.38-2.38 3-3.13 3.63-3.38a109.54 109.54 0 0 1 19.63-1.5zM28 133v20l17.5-10zm2.5 4.25l10 5.75-10 5.75zM97.55 123c-8.25 0-16 .63-20.13 1.5a6.94 6.94 0 0 0-5.62 5.38 81.15 81.15 0 0 0-1 13.13 68 68 0 0 0 1.12 13.13 7.11 7.11 0 0 0 5.63 5.38A114.92 114.92 0 0 0 97.67 163a114.81 114.81 0 0 0 20.12-1.5 6.93 6.93 0 0 0 5.63-5.37 94.68 94.68 0 0 0 1.25-13.25 67.79 67.79 0 0 0-1.25-13.25 7.1 7.1 0 0 0-5.62-5.38A156 156 0 0 0 97.55 123zm0 2.5a124.67 124.67 0 0 1 19.75 1.37 4.59 4.59 0 0 1 3.62 3.38 68.55 68.55 0 0 1 1.25 12.63 92.38 92.38 0 0 1-1.25 12.87c-.37 2.37-2.87 3.13-3.62 3.38a114.5 114.5 0 0 1-19.5 1.49c-7.5 0-15.12-.5-19.5-1.5a4.58 4.58 0 0 1-3.62-3.38A49.07 49.07 0 0 1 73.3 143a69.71 69.71 0 0 1 1-12.62c.38-2.38 3-3.13 3.63-3.38a109.56 109.56 0 0 1 19.63-1.5zM90.8 133v20l17.5-10zm2.5 4.25l10 5.75-10 5.75zM160.35 123c-8.25 0-16 .63-20.13 1.5a6.94 6.94 0 0 0-5.62 5.38 81.17 81.17 0 0 0-1 13.13 68 68 0 0 0 1.12 13.13 7.11 7.11 0 0 0 5.63 5.38 114.92 114.92 0 0 0 20.13 1.5 114.81 114.81 0 0 0 20.12-1.5 6.93 6.93 0 0 0 5.63-5.37 94.37 94.37 0 0 0 1.25-13.25 67.79 67.79 0 0 0-1.25-13.25 7.1 7.1 0 0 0-5.62-5.38 156 156 0 0 0-20.26-1.27zm0 2.5a124.69 124.69 0 0 1 19.75 1.37 4.58 4.58 0 0 1 3.62 3.38 68.46 68.46 0 0 1 1.28 12.63 92.07 92.07 0 0 1-1.25 12.87c-.37 2.37-2.87 3.13-3.62 3.38a114.52 114.52 0 0 1-19.5 1.49c-7.5 0-15.12-.5-19.5-1.5a4.58 4.58 0 0 1-3.62-3.38A49.12 49.12 0 0 1 136.1 143a69.62 69.62 0 0 1 1-12.62c.38-2.38 3-3.13 3.63-3.38a109.54 109.54 0 0 1 19.63-1.5zm-6.75 7.5v20l17.5-10zm2.5 4.25l10 5.75-10 5.75z" fill="#fff"/></g></svg>