<svg xmlns="http://www.w3.org/2000/svg" id="mcss-live-player" viewBox="0 0 1280 720"><defs><style>.cls-15{fill:#fff}.cls-11{font-size:28.18px}</style><linearGradient id="linear-gradient" x1="47.62" y1="578.08" x2="574.09" y2="578.08" gradientUnits="userSpaceOnUse"><stop offset="0"/><stop offset=".86" stop-opacity=".53"/><stop offset="1" stop-opacity="0"/></linearGradient><linearGradient id="linear-gradient-2" x1="609.12" y1="526.58" x2="1266.47" y2="526.58" gradientUnits="userSpaceOnUse"><stop offset="0" stop-opacity="0"/><stop offset=".14" stop-opacity=".53"/><stop offset="1"/></linearGradient><linearGradient id="linear-gradient-3" x1="831.58" y1="185.85" x2="1178.56" y2="185.85" gradientUnits="userSpaceOnUse"><stop offset="0" stop-opacity="0"/><stop offset=".13" stop-opacity=".53"/><stop offset=".9"/></linearGradient></defs><path fill="#ac4254" d="M1 0h1280v720H1z" id="Background"/><g id="Layer_2" data-name="Layer 2"><text transform="translate(25.12 48.26)" font-size="29.51">your video title</text><g id="mcss-live-player-controls"><path opacity=".5" fill="#020101" d="M0 633.08h1281V720H0z"/><path fill="#f2f2f2" d="M15.53 642.58h1250.94v6.75H15.53z"/><path fill="#ef1414" d="M15.53 642.58h433.23v6.75H15.53z"/></g><g id="mcss-live-player-caption"><path fill="url(#linear-gradient)" opacity=".5" d="M47.62 542.58h526.47v71H47.62z"/><text transform="translate(78.16 593.19)" font-size="45.56" fill="#fff">your video caption</text></g><g id="mcss-live-player-related"><path fill="url(#linear-gradient-2)" opacity=".5" d="M609.12 429.09h657.35v194.99H609.12z"/><path d="M1238.06 440.59l18 18m0-19l-18 18" stroke-width="4" fill="none" stroke="#dbd7d7" stroke-miterlimit="10"/><path d="M982.07 449.59h236.99v154.1H982.07zm-246.99-.06h236.99v154.1H735.08z" fill="#ffcfd7"/><text class="cls-11" transform="translate(760.08 526.64)">Related video</text><text class="cls-11" transform="translate(1006.58 526.64)">Related video</text></g><g id="mcss-live-player-annotations"><path fill="url(#linear-gradient-3)" opacity=".5" d="M831.58 110.6h346.98v150.49H831.58z"/><text transform="translate(915.62 185.85)">Annotations</text><circle cx="1177.67" cy="110.83" r="13.67" fill="#4f4e4e" opacity=".78"/><path d="M1170.56 104l14.61 14.6m0-15.41l-14.61 14.6" stroke-width="2" fill="none" stroke="#dbd7d7" stroke-miterlimit="10"/></g><g id="mcss-live-player-modest"><path id="u" class="cls-15" d="M1149.17 701.9h-4.85v-2.81c-1.84 2.11-3.4 3.17-5.09 3.17a3 3 0 0 1-3-2 10.26 10.26 0 0 1-.54-3.75v-20.38h4.85v20.92c.11.72.42 1 1 1 .93 0 1.77-.81 2.79-2.25v-19.67h4.85z"/><path id="o" class="cls-15" d="M1132.07 684.55c0-2.75-.55-4.82-1.53-6.12a6.43 6.43 0 0 0-5.36-2.48 6.11 6.11 0 0 0-5.36 2.48c-1 1.3-1.53 3.39-1.53 6.15v9.16c0 2.74.47 4.63 1.47 5.92a6.75 6.75 0 0 0 5.42 2.69 6.83 6.83 0 0 0 5.46-2.69c1-1.29 1.43-3.18 1.43-5.92zm-4.85 9.7c.26 2.55-.54 3.82-2 3.82s-2.3-1.27-2-3.82V684c-.26-2.55.54-3.75 2-3.75s2.3 1.2 2 3.75z"/><path id="y" class="cls-15" d="M1112.93 687.87v14h-5.1v-14s-5.29-17.21-6.38-20.41h5.36l3.58 13.44 3.56-13.44h5.36z"/><path class="cls-15" d="M1199 680.23a3.59 3.59 0 0 0-2.4 1.16v15.47a3.56 3.56 0 0 0 2.4 1.14c1.33 0 1.93-1 1.93-3.53v-11c.07-2.47-.57-3.24-1.93-3.24zm19.06 3.07c0-2.36-.61-3.07-2.14-3.07s-2.2.65-2.2 3v2.82h4.34z"/><path class="cls-15" d="M1228.53 670.24s-.74-5.23-3-7.53a10.92 10.92 0 0 0-7.63-3.21c-10.66-.77-26.65-.77-26.65-.77s-16 0-26.65.77a10.92 10.92 0 0 0-7.63 3.21c-2.28 2.3-3 7.53-3 7.53a114.19 114.19 0 0 0-.76 12.28v5.75a114.19 114.19 0 0 0 .76 12.28s.74 5.23 3 7.53c2.9 3 6.71 2.93 8.4 3.24 6.1.58 25.9.76 25.9.76s16 0 26.67-.79a10.92 10.92 0 0 0 7.63-3.21c2.28-2.3 3-7.53 3-7.53a114.34 114.34 0 0 0 .76-12.28v-5.75a114.34 114.34 0 0 0-.8-12.28zm-58.69 31.66h-5.1v-29.34h-5.36v-4.84h16.07v4.85h-5.61zm18.37 0h-4.85v-2.81c-1.84 2.11-3.4 3.17-5.09 3.17a3 3 0 0 1-3-2 10.26 10.26 0 0 1-.54-3.75v-20.12h4.85v20.67c.11.72.42 1 1 1 .93 0 1.77-.81 2.79-2.25v-19.42h4.85zm17.61-7.65a19.62 19.62 0 0 1-.51 5.1 3.79 3.79 0 0 1-3.8 2.88c-1.64 0-3.33-1-4.87-2.9v2.57H1192v-34.19h4.59v11.15c1.49-1.84 3.18-2.88 4.88-2.88a3.74 3.74 0 0 1 3.69 3 17.9 17.9 0 0 1 .62 5.09zM1216 698a2 2 0 0 0 2.06-1.85v-3.21h4.85v.72a29 29 0 0 1-.16 3 6.58 6.58 0 0 1-1.08 2.77 6.39 6.39 0 0 1-5.59 2.76 6.61 6.61 0 0 1-5.59-2.61 9.44 9.44 0 0 1-1.61-5.88v-8.93a10.26 10.26 0 0 1 1.55-6.12A6.62 6.62 0 0 1 1216 676a6.47 6.47 0 0 1 5.45 2.67c1 1.29 1.5 3.28 1.5 6v5.22h-9.19v4.58c-.06 2.38.61 3.53 2.24 3.53z"/></g></g></svg>