<svg xmlns="http://www.w3.org/2000/svg" style="isolation:isolate" width="200" height="200"><defs><clipPath id="a"><path d="M0 0h200v200H0z"/></clipPath></defs><g clip-path="url(#a)"><clipPath id="b"><path fill="#FFF" d="M0 0h200v200H0z"/></clipPath><g clip-path="url(#b)"><path d="M99.4 34.5c-27 0-52.4 2-65.91 4.91-9 2-16.79 8.19-18.42 17.6a265.838 265.838 0 0 0-3.28 43c0 18.42 1.63 32.75 3.68 43 1.65 9 9.42 15.56 18.42 17.6 14.34 2.87 38.89 4.91 65.92 4.91s51.57-2 65.9-4.91c9-2 16.79-8.19 18.42-17.6a309.39 309.39 0 0 0 4.09-43.38 221.963 221.963 0 0 0-4.09-43.4c-1.63-9-9.4-15.56-18.42-17.61-14.34-2.07-39.3-4.12-66.31-4.12zm0 8.19c29.47 0 53.2 2.45 64.67 4.49 6.14 1.65 11.05 5.74 11.87 11.07A224.448 224.448 0 0 1 180 99.6a301.92 301.92 0 0 1-4.09 42.16c-1.22 7.77-9.4 10.24-11.87 11.07-14.74 2.86-39.3 4.9-63.87 4.9s-49.53-1.64-63.85-4.9c-6.14-1.65-11.05-5.74-11.86-11.06C21.2 130.29 20 115.15 20 100c0-18.84 1.65-32.75 3.27-41.34 1.24-7.79 9.82-10.25 11.87-11.06 13.51-2.87 38.49-4.91 64.28-4.91h-.02z" fill="#FFF"/></g><path d="M44.514 96.589c0-10.213 8.292-18.505 18.505-18.505s18.504 8.292 18.504 18.505-8.291 18.505-18.504 18.505c-10.213 0-18.505-8.292-18.505-18.505z" fill="#980000"/><text transform="translate(84.607 107.963) scale(1.542)" font-family="Open Sans" font-weight="700" font-size="20" fill="#fff">LIVE</text></g></svg>