<svg id="Layer_1" data-name="Layer 1" xmlns="http://www.w3.org/2000/svg" viewBox="0 0 200 200"><defs><style>.cls-3{fill:#fff}</style><clipPath id="clip-path"><path fill="none" d="M0 0h200v200H0z"/></clipPath></defs><g clip-path="url(#clip-path)"><path class="cls-3" d="M156 133.1a71.85 71.85 0 0 0-12.82 1 4.42 4.42 0 0 0-3.58 3.42 51.67 51.67 0 0 0-.64 8.36 43.35 43.35 0 0 0 .71 8.36 4.53 4.53 0 0 0 3.58 3.42 73.12 73.12 0 0 0 12.82 1 73 73 0 0 0 12.82-1 4.41 4.41 0 0 0 3.58-3.42 60.22 60.22 0 0 0 .8-8.44 43.18 43.18 0 0 0-.8-8.44 4.52 4.52 0 0 0-3.58-3.42 99.33 99.33 0 0 0-12.89-.84zm0 1.59a79.42 79.42 0 0 1 12.58.87 2.92 2.92 0 0 1 2.31 2.15 43.69 43.69 0 0 1 .8 8 58.76 58.76 0 0 1-.8 8.2c-.24 1.51-1.83 2-2.31 2.15a73 73 0 0 1-12.42 1 65.1 65.1 0 0 1-12.42-1 2.92 2.92 0 0 1-2.31-2.15 31.25 31.25 0 0 1-.88-8.12 44.36 44.36 0 0 1 .64-8c.24-1.51 1.91-2 2.31-2.15a69.82 69.82 0 0 1 12.5-1zm-4.3 4.78v12.74l11.15-6.37zm1.59 2.71l6.37 3.66-6.37 3.66zm2.71-36.11a71.86 71.86 0 0 0-12.82 1 4.42 4.42 0 0 0-3.58 3.42 51.67 51.67 0 0 0-.64 8.36 43.35 43.35 0 0 0 .71 8.36 4.53 4.53 0 0 0 3.58 3.42 73.24 73.24 0 0 0 12.82 1 73.16 73.16 0 0 0 12.82-1 4.42 4.42 0 0 0 3.58-3.42 60.2 60.2 0 0 0 .8-8.44 43.18 43.18 0 0 0-.8-8.44 4.52 4.52 0 0 0-3.58-3.42 99.37 99.37 0 0 0-12.89-.84zm0 1.59a79.42 79.42 0 0 1 12.58.87 2.92 2.92 0 0 1 2.31 2.15 43.69 43.69 0 0 1 .8 8 58.74 58.74 0 0 1-.8 8.2c-.24 1.51-1.83 2-2.31 2.15a73 73 0 0 1-12.42 1 65.1 65.1 0 0 1-12.42-1 2.92 2.92 0 0 1-2.31-2.15 31.25 31.25 0 0 1-.88-8.12 44.36 44.36 0 0 1 .64-8c.24-1.51 1.91-2 2.31-2.15a69.82 69.82 0 0 1 12.5-1zm-4.3 4.78v12.74l11.15-6.37zm1.59 2.71l6.37 3.66-6.37 3.66zM156 79a71.86 71.86 0 0 0-12.82 1 4.42 4.42 0 0 0-3.58 3.42 51.67 51.67 0 0 0-.64 8.36 43.34 43.34 0 0 0 .71 8.36 4.53 4.53 0 0 0 3.58 3.42 73.24 73.24 0 0 0 12.82 1 73.16 73.16 0 0 0 12.82-1 4.42 4.42 0 0 0 3.58-3.42 60.19 60.19 0 0 0 .8-8.44 43.18 43.18 0 0 0-.8-8.44 4.52 4.52 0 0 0-3.58-3.42A99.37 99.37 0 0 0 156 79zm0 1.59a79.42 79.42 0 0 1 12.58.87 2.92 2.92 0 0 1 2.31 2.15 43.68 43.68 0 0 1 .8 8 58.74 58.74 0 0 1-.8 8.2c-.24 1.51-1.83 2-2.31 2.15a72.86 72.86 0 0 1-12.42 1 65.18 65.18 0 0 1-12.42-1 2.92 2.92 0 0 1-2.31-2.15 31.25 31.25 0 0 1-.88-8.12 44.36 44.36 0 0 1 .64-8c.24-1.51 1.91-2 2.31-2.15a69.71 69.71 0 0 1 12.5-1zm-4.3 4.78v12.77l11.15-6.37zm1.59 2.71l6.37 3.66-6.37 3.66zM156 52a71.86 71.86 0 0 0-12.82 1 4.42 4.42 0 0 0-3.58 3.42 51.67 51.67 0 0 0-.64 8.36 43.34 43.34 0 0 0 .71 8.36 4.53 4.53 0 0 0 3.58 3.42 73.24 73.24 0 0 0 12.82 1 73.16 73.16 0 0 0 12.82-1 4.41 4.41 0 0 0 3.58-3.42 60.19 60.19 0 0 0 .8-8.44 43.16 43.16 0 0 0-.8-8.44 4.52 4.52 0 0 0-3.58-3.42A99.37 99.37 0 0 0 156 52zm0 1.59a79.39 79.39 0 0 1 12.58.88 2.92 2.92 0 0 1 2.31 2.15 43.68 43.68 0 0 1 .8 8 58.74 58.74 0 0 1-.8 8.2c-.24 1.51-1.83 2-2.31 2.15a73 73 0 0 1-12.42 1 65.18 65.18 0 0 1-12.42-1 2.92 2.92 0 0 1-2.31-2.15 31.25 31.25 0 0 1-.88-8.12 44.37 44.37 0 0 1 .64-8c.24-1.51 1.91-2 2.31-2.15a69.71 69.71 0 0 1 12.5-1zm-4.3 4.78v12.74l11.15-6.37zm1.59 2.71l6.37 3.66-6.37 3.66z"/><path class="cls-3" d="M99.4 34.5c-27 0-52.4 2-65.91 4.91-9 2-16.79 8.19-18.42 17.6a265.81 265.81 0 0 0-3.28 43c0 18.42 1.63 32.75 3.68 43 1.65 9 9.42 15.56 18.42 17.6 14.34 2.87 38.89 4.91 65.92 4.91s51.57-2 65.9-4.91c9-2 16.79-8.19 18.42-17.6a309.49 309.49 0 0 0 4.09-43.38 222 222 0 0 0-4.09-43.4c-1.63-9-9.4-15.56-18.42-17.61-14.34-2.07-39.3-4.12-66.31-4.12zm0 8.19c29.47 0 53.2 2.45 64.67 4.49 6.14 1.65 11.05 5.74 11.87 11.07A224.41 224.41 0 0 1 180 99.6a301.94 301.94 0 0 1-4.09 42.16c-1.22 7.77-9.4 10.24-11.87 11.07-14.74 2.86-39.3 4.9-63.87 4.9s-49.53-1.64-63.85-4.9c-6.14-1.65-11.05-5.74-11.86-11.06C21.2 130.29 20 115.15 20 100c0-18.84 1.65-32.75 3.27-41.34 1.24-7.79 9.82-10.25 11.87-11.06 13.51-2.87 38.49-4.91 64.28-4.91zM77.28 67.25v65.5L134.6 100zm8.19 13.93L118.22 100l-32.75 18.82z"/></g></svg>